<svg xmlns="http://www.w3.org/2000/svg" version="1.1" xmlns:xlink="http://www.w3.org/1999/xlink" xmlns:svgjs="http://svgjs.dev/svgjs" width="1000" height="217" viewBox="0 0 1000 217"><g transform="matrix(1,0,0,1,-0.6060585571497654,-0.33239867691200686)"><svg viewBox="0 0 396 86" data-background-color="#ffffff" preserveAspectRatio="xMidYMid meet" height="217" width="1000" xmlns="http://www.w3.org/2000/svg" xmlns:xlink="http://www.w3.org/1999/xlink"><g id="tight-bounds" transform="matrix(1,0,0,1,0.23999918863131597,0.1317340378545282)"><svg viewBox="0 0 395.52 85.73653192429093" height="85.73653192429093" width="395.52"><g><svg viewBox="0 0 522.3674098501199 113.23313640479361" height="85.73653192429093" width="395.52"><g transform="matrix(1,0,0,1,126.84740985011985,27.782054221038617)"><svg viewBox="0 0 395.52 57.66902796271638" height="57.66902796271638" width="395.52"><g id="textblocktransform"><svg viewBox="0 0 395.52 57.66902796271638" height="57.66902796271638" width="395.52" id="textblock"><g><svg viewBox="0 0 395.52 57.66902796271638" height="57.66902796271638" width="395.52"><g transform="matrix(1,0,0,1,0,0)"><svg width="395.52" viewBox="1 -32.45000076293945 225.27999877929688 32.85000228881836" height="57.66902796271638" data-palette-color="#ab47bc"><path d="M44.5-32.1L33.4 0 28 0 22.35-17.25 22-17.25 16.15 0 10.7 0 1-32.1 6.1-32.1 6.65-28.65 13.55-5.5 13.95-5.5 20.25-24.1 17.7-32.1 22.95-32.1 23.75-28.15 30.75-5.5 31.15-5.5 38.9-28.35 39.7-32.1 44.5-32.1ZM54.4-32.1L54.1-10.1 54.35 0 49.1 0 49.45-9.65 49.1-32.1 54.4-32.1ZM72.45-32.45Q76.25-32.45 80.05-30.85L80.05-30.85 79.2-26.15 78.4-25.85Q76.8-27 75.1-27.65 73.4-28.3 71.85-28.3L71.85-28.3Q69.4-28.3 67.95-26.95 66.5-25.6 66.5-23.8L66.5-23.8Q66.5-22.05 67.95-20.93 69.4-19.8 72.5-18.35L72.5-18.35Q75.2-17.05 76.87-16 78.55-14.95 79.75-13.23 80.95-11.5 80.95-9.1L80.95-9.1Q80.95-6.5 79.52-4.33 78.1-2.15 75.52-0.88 72.95 0.4 69.65 0.4L69.65 0.4Q67.45 0.4 65.1-0.15 62.75-0.7 60.65-1.75L60.65-1.75 61.3-6.85 61.95-7.15Q63.8-5.4 66.02-4.53 68.25-3.65 70.15-3.65L70.15-3.65Q72.75-3.65 74.3-5.03 75.85-6.4 75.85-8.3L75.85-8.3Q75.85-10.2 74.35-11.38 72.85-12.55 69.75-14L69.75-14Q67.1-15.25 65.45-16.28 63.8-17.3 62.62-19 61.45-20.7 61.45-23.1L61.45-23.1Q61.45-25.7 62.85-27.85 64.25-30 66.75-31.23 69.25-32.45 72.45-32.45L72.45-32.45ZM98.44-4.15L106.19-4.4 106.49-3.95 106.14 0 87.19 0 87.54-9.65 87.19-32.1 106.24-32.1 106.54-31.65 106.14-27.7 98.54-27.9 92.44-27.85 92.29-18.5 98.09-18.4 103.39-18.55 103.74-18.15 103.34-14.2 97.69-14.35 92.24-14.25 92.19-10.1 92.34-4.2 98.44-4.15ZM141.34-32.1L144.39 0 139.79 0 139.14-9.75 137.64-24.25 137.29-24.25 129.04-3.55 124.94-3.55 117.29-24.25 116.84-24.25 115.34-10.2 114.54 0 110.19 0 113.54-32.1 119.44-32.1 120.94-27.3 127.09-10.25 127.49-10.25 133.99-27.45 135.49-32.1 141.34-32.1ZM156.74-32.1L156.44-10.1 156.69 0 151.44 0 151.79-9.65 151.44-32.1 156.74-32.1ZM191.19-32.2L190.89-9.6 191.04 0 185.49 0 170.39-24.05 170.03-24.05 169.99-10.75 170.14 0 165.44 0 165.69-9.5 165.49-32.1 170.94-32.1 186.09-8.05 186.49-8.05 186.39-31.85 191.19-32.2ZM211.98-32.3Q218.88-32.3 222.58-28.4 226.28-24.5 226.28-17.2L226.28-17.2Q226.28-8.75 222.23-4.23 218.18 0.3 210.58 0.3L210.58 0.3Q208.43 0.3 205.43 0.23 202.43 0.15 199.83 0L199.83 0 199.78 0 200.13-9.65 199.78-32.1 199.83-32.1 211.98-32.3ZM211.48-3.8Q216.08-3.8 218.51-6.85 220.93-9.9 220.93-16.05L220.93-16.05Q220.93-22.25 218.61-25.18 216.28-28.1 211.58-28.1L211.58-28.1Q208.83-28.1 205.03-27.9L205.03-27.9 204.78-10.1 204.93-4.15Q206.73-4 208.53-3.9 210.33-3.8 211.48-3.8L211.48-3.8Z" opacity="1" transform="matrix(1,0,0,1,0,0)" fill="#ab47bc" class="undefined-text-0" data-fill-palette-color="primary" id="text-0"></path></svg></g></svg></g></svg></g></svg></g><g><svg viewBox="0 0 113.23313640479361 113.23313640479361" height="113.23313640479361" width="113.23313640479361"><g><svg xmlns="http://www.w3.org/2000/svg" xmlns:xlink="http://www.w3.org/1999/xlink" version="1.0" x="0" y="0" viewBox="1 1 48 48" enable-background="new 0 0 50 50" xml:space="preserve" height="113.23313640479361" width="113.23313640479361" class="icon-icon-0" data-fill-palette-color="accent" id="icon-0"><g fill="#ab47bc" data-fill-palette-color="accent"><g fill="#ab47bc" data-fill-palette-color="accent"><rect x="1" y="1" fill="#ab47bc" width="23" height="5" data-fill-palette-color="accent"></rect><rect x="1" y="10" fill="#ab47bc" width="23" height="5" data-fill-palette-color="accent"></rect><rect x="1" y="19" fill="#ab47bc" width="23" height="5" data-fill-palette-color="accent"></rect></g><g fill="#ab47bc" data-fill-palette-color="accent"><rect x="26" y="26" fill="#ab47bc" width="23" height="5" data-fill-palette-color="accent"></rect><rect x="26" y="35" fill="#ab47bc" width="23" height="5" data-fill-palette-color="accent"></rect><rect x="26" y="44" fill="#ab47bc" width="23" height="5" data-fill-palette-color="accent"></rect></g><g fill="#ab47bc" data-fill-palette-color="accent"><rect x="19" y="26" fill="#ab47bc" width="5" height="23" data-fill-palette-color="accent"></rect><rect x="10" y="26" fill="#ab47bc" width="5" height="23" data-fill-palette-color="accent"></rect><rect x="1" y="26" fill="#ab47bc" width="5" height="23" data-fill-palette-color="accent"></rect></g><g fill="#ab47bc" data-fill-palette-color="accent"><rect x="44" y="1" fill="#ab47bc" width="5" height="23" data-fill-palette-color="accent"></rect><rect x="35" y="1" fill="#ab47bc" width="5" height="23" data-fill-palette-color="accent"></rect><rect x="26" y="1" fill="#ab47bc" width="5" height="23" data-fill-palette-color="accent"></rect></g></g></svg></g></svg></g></svg></g><defs></defs></svg><rect width="395.52" height="85.73653192429093" fill="none" stroke="none" visibility="hidden"></rect></g></svg></g></svg>